<?xml version="1.0" standalone="no"?>
<!DOCTYPE svg PUBLIC "-//W3C//DTD SVG 20010904//EN"
 "http://www.w3.org/TR/2001/REC-SVG-20010904/DTD/svg10.dtd">
<svg version="1.0" xmlns="http://www.w3.org/2000/svg"
 width="600.000000pt" height="600.000000pt" viewBox="0 0 600.000000 600.000000"
 preserveAspectRatio="xMidYMid meet">
<metadata>
Created by potrace 1.14, written by Peter Selinger 2001-2017
</metadata>
<g transform="translate(0.000000,600.000000) scale(0.100000,-0.100000)"
fill="#000000" stroke="none">
<path d="M0 3000 l0 -3000 3000 0 3000 0 0 3000 0 3000 -3000 0 -3000 0 0
-3000z m5897 2581 c67 -31 87 -80 87 -216 -1 -163 -32 -293 -112 -470 -91
-199 -277 -487 -403 -622 -23 -25 -39 -22 -39 5 0 13 2 14 9 3 6 -9 11 -10 15
-3 7 11 -22 52 -36 52 -5 0 -8 -11 -8 -25 0 -14 -9 -30 -20 -37 -23 -14 -26
-34 -7 -41 7 -2 8 -8 3 -13 -5 -5 -11 -4 -13 4 -3 6 -14 12 -26 13 -12 0 -16
3 -9 6 6 2 12 9 12 15 0 5 9 21 20 35 11 15 18 29 14 32 -3 3 -10 -2 -15 -12
-6 -9 -16 -17 -24 -17 -8 0 -11 -7 -8 -20 4 -14 0 -20 -10 -20 -8 0 -23 -3
-32 -7 -16 -5 -16 -3 1 23 10 16 21 31 25 34 9 8 124 176 217 319 102 156 217
384 238 473 19 79 13 133 -18 149 -34 18 -114 3 -171 -31 -162 -98 -389 -431
-650 -955 -22 -44 -44 -81 -48 -83 -5 -2 -9 -9 -9 -16 0 -15 -29 -76 -37 -76
-2 0 -1 15 3 32 6 31 5 32 -11 18 -14 -11 -19 -12 -22 -3 -4 10 -10 10 -25 2
-11 -6 -26 -8 -33 -5 -8 3 -17 1 -21 -5 -3 -6 -12 -8 -20 -5 -9 3 -14 -1 -14
-13 0 -21 -47 -42 -80 -36 -13 3 -26 -5 -36 -21 -26 -38 -30 -19 -6 28 11 24
48 99 81 168 65 135 151 298 212 399 22 34 39 65 39 67 0 7 188 300 226 353
213 292 404 470 554 516 30 9 60 18 65 20 30 10 105 2 142 -14z m-4138 -2
c201 -63 304 -194 366 -468 66 -291 71 -807 14 -1511 -19 -230 -28 -298 -30
-219 0 27 -2 30 -8 14 -5 -11 -4 -33 0 -50 11 -38 11 -44 -2 -23 -10 18 -36
14 -52 -6 -6 -8 -10 -7 -14 2 -6 15 -35 16 -51 0 -9 -9 -12 -8 -12 5 0 9 -4
17 -10 17 -5 0 -10 -7 -10 -15 0 -10 -10 -15 -30 -15 -20 0 -30 -5 -30 -15 0
-10 -9 -15 -27 -14 -16 1 -41 -2 -57 -6 l-29 -8 7 209 c8 275 23 659 37 969
11 237 6 464 -11 509 -7 20 -8 20 -15 -4 -4 -14 -21 -54 -37 -90 -17 -36 -39
-87 -50 -115 -10 -27 -32 -79 -48 -115 -29 -65 -233 -547 -292 -690 -17 -41
-46 -109 -63 -150 -18 -41 -56 -131 -85 -200 -29 -69 -63 -149 -76 -178 -13
-29 -24 -55 -24 -59 0 -11 -66 -163 -128 -292 -32 -67 -41 -80 -44 -60 -2 20
-9 24 -45 27 -36 3 -42 0 -49 -20 -8 -22 -8 -22 -13 6 -7 35 -31 48 -31 17 0
-12 5 -21 10 -21 6 0 10 -4 10 -10 0 -5 -7 -10 -15 -10 -8 0 -15 8 -15 17 0
15 -2 14 -14 -3 -8 -10 -17 -17 -19 -14 -6 6 67 189 119 298 18 40 34 75 34
78 0 5 206 473 261 592 16 35 29 65 29 68 0 2 19 43 41 91 23 49 59 129 81
178 22 50 51 115 65 145 267 583 313 696 328 810 18 133 -93 189 -300 151
-259 -48 -451 -317 -521 -731 -8 -47 -14 -147 -14 -225 1 -77 1 -146 0 -153 0
-15 -39 -7 -90 19 -121 61 -200 285 -170 485 28 186 130 351 313 509 85 72
263 183 334 205 21 7 43 16 48 20 6 5 44 16 85 25 41 9 86 20 100 25 38 12
209 12 249 -1z m2200 -70 c31 -9 41 -17 37 -28 -2 -9 -36 -106 -74 -216 -76
-220 -136 -431 -207 -720 -25 -104 -52 -212 -60 -240 -7 -27 -17 -72 -20 -100
-4 -27 -10 -59 -15 -70 -8 -19 -37 -145 -62 -275 -25 -131 -48 -181 -48 -107
-1 31 -1 31 -13 9 -10 -17 -15 -20 -25 -10 -9 9 -12 7 -12 -9 0 -20 -4 -21
-55 -16 -45 5 -56 3 -61 -11 -4 -11 -19 -16 -50 -16 -42 0 -44 -1 -55 -40 -7
-22 -16 -40 -21 -40 -11 0 -10 17 2 25 6 3 10 17 10 30 0 19 -4 23 -16 18 -14
-5 -16 -2 -9 23 4 16 13 56 21 89 25 117 52 231 73 310 11 44 21 89 21 101 0
11 3 24 7 27 6 7 43 142 67 252 7 33 23 94 34 135 35 133 36 135 17 120 -42
-35 -214 -298 -337 -515 -90 -159 -296 -555 -350 -670 -5 -11 -16 -31 -24 -45
l-16 -25 6 35 c4 24 3 30 -3 20 -7 -10 -24 -13 -55 -11 -43 2 -46 1 -46 -23 0
-14 -4 -26 -9 -26 -13 0 -24 34 -12 38 13 4 15 22 2 22 -5 0 -14 -15 -21 -32
-8 -18 -19 -40 -26 -48 -6 -8 -14 -24 -17 -35 -4 -16 -5 -15 -6 6 0 14 6 34
14 45 8 10 15 25 15 32 0 17 228 473 335 672 98 184 188 340 259 455 31 50 59
97 63 105 25 56 379 600 436 670 84 104 171 130 306 89z m1477 -1276 c-7 -7
-26 7 -26 19 0 6 6 6 15 -2 9 -7 13 -15 11 -17z m-177 -45 c-8 -14 -14 -18
-17 -10 -4 13 17 46 25 38 3 -2 -1 -15 -8 -28z m101 2 c0 -5 -4 -10 -10 -10
-5 0 -10 5 -10 10 0 6 5 10 10 10 6 0 10 -4 10 -10z m-65 -129 c-3 -6 -11 -11
-17 -11 -6 0 -6 6 2 15 14 17 26 13 15 -4z m-464 -24 c-8 -8 -11 -7 -11 4 0
20 13 34 18 19 3 -7 -1 -17 -7 -23z m364 -27 c-3 -5 -10 -10 -16 -10 -5 0 -9
5 -9 10 0 6 7 10 16 10 8 0 12 -4 9 -10z m55 0 c0 -5 -5 -10 -11 -10 -5 0 -7
5 -4 10 3 6 8 10 11 10 2 0 4 -4 4 -10z m-713 -42 c-3 -8 -6 -5 -6 6 -1 11 2
17 5 13 3 -3 4 -12 1 -19z m693 12 c0 -5 -5 -10 -11 -10 -5 0 -7 5 -4 10 3 6
8 10 11 10 2 0 4 -4 4 -10z m-76 -75 c-37 -34 -44 -39 -44 -31 0 8 50 56 60
56 5 0 10 8 11 18 0 10 3 12 6 4 3 -7 -12 -28 -33 -47z m-134 21 c0 -3 -4 -8
-10 -11 -5 -3 -10 -1 -10 4 0 6 5 11 10 11 6 0 10 -2 10 -4z m-20 -30 c0 -9
-50 -56 -60 -56 -16 0 32 59 48 59 6 1 12 -1 12 -3z m-513 -38 c-3 -8 -6 -5
-6 6 -1 11 2 17 5 13 3 -3 4 -12 1 -19z m613 3 c0 -12 -20 -25 -27 -18 -7 7 6
27 18 27 5 0 9 -4 9 -9z m-197 -61 c-9 -16 -24 -30 -32 -30 -10 0 -5 10 14 30
16 17 30 30 32 30 2 0 -4 -13 -14 -30z m167 22 c0 -5 -13 -18 -30 -30 -36 -27
-38 -23 -7 12 22 26 37 33 37 18z m-340 -16 c0 -3 -4 -8 -10 -11 -5 -3 -10 -1
-10 4 0 6 5 11 10 11 6 0 10 -2 10 -4z m202 -38 c-7 -7 -12 -8 -12 -2 0 6 3
14 7 17 3 4 9 5 12 2 2 -3 -1 -11 -7 -17z m-482 -1 c0 -7 -7 -22 -15 -33 -13
-17 -13 -16 -3 14 13 34 18 40 18 19z m257 -19 c-3 -8 -6 -5 -6 6 -1 11 2 17
5 13 3 -3 4 -12 1 -19z m293 14 c0 -4 -9 -13 -20 -20 -12 -7 -18 -17 -15 -22
3 -6 -1 -10 -9 -10 -8 0 -21 -8 -28 -17 -19 -26 -78 -66 -78 -53 0 6 11 16 25
22 14 6 28 21 31 33 3 13 13 22 22 21 9 0 22 11 30 27 12 24 42 38 42 19z
m-109 -37 c-17 -37 -31 -45 -31 -18 0 15 28 51 41 52 4 1 -1 -15 -10 -34z
m-76 -5 c-3 -5 -12 -10 -18 -10 -7 0 -6 4 3 10 19 12 23 12 15 0z m-169 -42
c-13 -23 -29 -44 -35 -46 -6 -2 1 17 16 42 35 58 51 61 19 4z m-199 -10 c-3
-7 -5 -2 -5 12 0 14 2 19 5 13 2 -7 2 -19 0 -25z m312 -19 c-49 -44 -64 -35
-16 10 23 22 44 35 46 30 2 -6 -12 -24 -30 -40z m-272 9 c-3 -8 -6 -5 -6 6 -1
11 2 17 5 13 3 -3 4 -12 1 -19z m193 18 c0 -3 -4 -8 -10 -11 -5 -3 -10 -1 -10
4 0 6 5 11 10 11 6 0 10 -2 10 -4z m131 -19 c-6 -8 -8 -17 -4 -20 3 -4 1 -7
-5 -7 -13 0 -16 22 -5 33 12 13 25 7 14 -6z m-151 -37 c0 -5 -4 -10 -9 -10 -6
0 -13 5 -16 10 -3 6 1 10 9 10 9 0 16 -4 16 -10z m130 0 c13 -8 13 -10 -2 -10
-9 0 -20 5 -23 10 -8 13 5 13 25 0z m-1603 -22 c-3 -8 -6 -5 -6 6 -1 11 2 17
5 13 3 -3 4 -12 1 -19z m1631 -1 c-13 -13 -39 -36 -59 -50 -40 -30 -60 -22
-58 23 1 24 2 24 8 -3 l6 -29 27 21 c14 12 30 21 36 21 5 0 17 9 27 20 10 11
22 20 27 20 5 0 -1 -11 -14 -23z m-78 3 c0 -5 -4 -10 -10 -10 -5 0 -10 5 -10
10 0 6 5 10 10 10 6 0 10 -4 10 -10z m-1243 -32 c-3 -8 -6 -5 -6 6 -1 11 2 17
5 13 3 -3 4 -12 1 -19z m883 15 c0 -5 -7 -21 -15 -37 -10 -18 -12 -32 -6 -35
6 -4 6 -12 2 -20 -14 -22 -22 33 -10 68 10 27 29 43 29 24z m-1189 -76 c-10
-9 -11 -8 -5 6 3 10 9 15 12 12 3 -3 0 -11 -7 -18z m-521 6 c0 -5 -4 -15 -10
-23 -11 -18 -25 -7 -17 15 6 15 27 21 27 8z m817 -15 c-3 -8 -6 -5 -6 6 -1 11
2 17 5 13 3 -3 4 -12 1 -19z m1222 15 c0 -10 -95 -73 -109 -73 -5 0 -10 5 -10
10 0 6 9 10 19 10 10 0 21 7 25 15 3 8 12 15 19 15 8 0 20 7 27 15 13 16 30
20 29 8z m-1999 -27 c0 -14 -4 -27 -9 -30 -4 -3 -8 8 -7 24 1 36 16 41 16 6z
m1920 20 c0 -2 -7 -6 -15 -10 -8 -3 -15 -1 -15 4 0 6 7 10 15 10 8 0 15 -2 15
-4z m-294 -53 c11 -53 16 -60 24 -33 8 24 8 24 9 3 1 -15 7 -22 19 -21 9 1 34
0 55 0 32 -2 37 -5 37 -27 0 -14 5 -25 10 -25 6 0 10 -12 11 -27 l1 -28 10 29
c8 21 7 30 -2 36 -15 9 -10 42 8 48 7 2 12 -6 13 -20 l0 -23 9 23 c5 12 14 22
21 22 7 0 8 -7 4 -17 -25 -60 -58 -152 -62 -173 -3 -14 -15 -35 -26 -47 -24
-27 -17 -50 18 -59 14 -3 25 -10 25 -15 0 -5 6 -9 13 -9 29 0 74 -108 83 -200
11 -117 59 -371 78 -413 8 -18 17 -45 20 -62 3 -16 9 -41 12 -54 5 -17 4 -22
-4 -17 -7 4 -12 18 -12 32 0 19 -5 24 -26 24 -14 0 -23 4 -19 10 3 6 -1 10
-10 10 -9 0 -13 -4 -10 -10 3 -6 -4 -10 -18 -10 -18 0 -29 -9 -41 -32 -9 -20
-16 -26 -16 -15 0 30 -19 18 -23 -15 -4 -32 -4 -32 -5 5 -2 45 -22 50 -22 5 0
-25 -3 -29 -10 -18 -5 8 -10 27 -10 43 0 15 -4 27 -9 27 -4 0 -11 16 -14 37
-10 58 -120 303 -136 301 -7 -2 -24 -39 -38 -83 -14 -44 -33 -102 -43 -130
-10 -27 -31 -88 -46 -135 -25 -79 -33 -101 -55 -155 -4 -11 -10 -27 -13 -35
-4 -8 -4 4 -1 26 4 31 1 43 -10 48 -11 4 -15 -2 -15 -24 0 -17 -4 -30 -10 -30
-5 0 -10 11 -10 25 0 24 -1 24 -20 8 -11 -10 -20 -29 -20 -43 0 -20 -2 -22
-10 -10 -5 8 -10 12 -10 7 0 -4 -14 0 -31 9 -21 10 -34 12 -38 5 -9 -15 -42
-7 -53 12 -13 23 -28 12 -28 -21 0 -21 -2 -24 -10 -12 -7 11 -10 6 -10 -22 0
-20 -5 -40 -11 -44 -7 -4 -9 0 -6 12 3 11 8 37 11 59 4 22 15 65 26 95 10 30
34 105 54 165 41 130 138 407 156 450 24 58 61 160 72 200 6 22 16 47 23 55 7
8 16 30 20 47 3 18 11 35 16 38 5 4 9 13 9 21 0 8 11 39 24 67 14 29 31 71 38
95 15 49 25 53 34 15z m-1885 -200 c-8 -15 -10 -15 -11 -2 0 17 10 32 18 25 2
-3 -1 -13 -7 -23z m142 -35 c-8 -46 -13 -48 -13 -5 0 21 4 37 10 37 5 0 7 -14
3 -32z m537 -44 c7 -8 9 -21 5 -31 -6 -14 -11 -10 -21 22 -7 22 -12 49 -12 60
0 14 2 11 8 -8 5 -16 14 -35 20 -43z m238 -1 c13 -36 14 -113 1 -113 -11 0
-11 -58 1 -85 7 -14 8 -9 4 18 -4 25 -1 45 9 61 11 17 15 42 13 87 -3 41 -1
55 4 39 4 -14 8 -19 9 -12 1 6 6 12 12 12 7 0 9 -10 4 -27 -4 -16 -9 -48 -11
-73 -3 -25 -7 -52 -11 -60 -3 -8 -7 -28 -8 -45 -3 -30 -32 -237 -40 -285 -2
-14 -6 -59 -10 -100 -4 -41 -9 -82 -12 -90 -3 -8 -5 -35 -4 -60 1 -25 -3 -70
-9 -100 -9 -47 -20 -134 -35 -275 -2 -16 -4 -59 -4 -94 -1 -35 -4 -61 -8 -57
-4 3 -6 44 -4 90 1 52 -2 87 -8 91 -7 4 -11 -20 -12 -72 -1 -43 -4 -68 -6 -55
-4 21 -9 22 -98 22 -51 0 -100 -3 -109 -6 -12 -5 -16 -22 -18 -73 l-1 -66 -7
60 c-5 48 -8 56 -15 40 -8 -17 -11 -13 -16 25 l-6 45 -1 -58 c-2 -41 -5 -56
-14 -51 -21 13 0 399 37 674 28 209 51 336 57 320 3 -8 5 -1 5 15 -2 64 3 105
13 105 6 0 10 -10 9 -22 -4 -45 1 -78 12 -78 7 0 8 14 4 41 -5 29 -4 40 4 35
6 -4 11 -19 12 -34 l0 -27 12 23 c8 18 8 25 -2 31 -16 10 -10 67 7 64 7 -2 12
7 12 21 0 24 1 25 93 24 66 -1 97 -6 110 -16 15 -13 17 -13 17 1 0 10 -5 17
-12 17 -9 0 -9 3 0 12 7 7 12 24 12 38 0 14 -5 31 -12 38 -8 8 -8 12 -1 12 6
0 15 -12 21 -27z m-273 -68 c-4 -41 -11 -75 -17 -75 -6 0 -8 15 -4 38 3 20 9
56 12 80 11 69 17 39 9 -43z m-547 7 c-8 -32 -14 -40 -22 -32 -8 8 -7 13 2 19
10 6 11 19 7 47 -7 35 -6 38 8 24 14 -13 14 -22 5 -58z m-156 26 c-7 -7 -12
-8 -12 -2 0 14 12 26 19 19 2 -3 -1 -11 -7 -17z m-20 -40 c-7 -7 -12 -8 -12
-2 0 14 12 26 19 19 2 -3 -1 -11 -7 -17z m740 -10 c-8 -8 -9 -4 -5 13 4 13 8
18 11 10 2 -7 -1 -18 -6 -23z m-705 0 c-3 -8 -6 -5 -6 6 -1 11 2 17 5 13 3 -3
4 -12 1 -19z m110 -40 c-3 -8 -6 -5 -6 6 -1 11 2 17 5 13 3 -3 4 -12 1 -19z
m-171 -25 c-10 -10 -19 5 -10 18 6 11 8 11 12 0 2 -7 1 -15 -2 -18z m154 -33
c0 -5 -5 -10 -11 -10 -5 0 -7 5 -4 10 3 6 8 10 11 10 2 0 4 -4 4 -10z m-1643
-62 c-3 -7 -5 -2 -5 12 0 14 2 19 5 13 2 -7 2 -19 0 -25z m1438 -24 c-11 -12
-14 -25 -9 -48 3 -17 3 -28 -1 -24 -5 4 -14 0 -21 -10 -24 -32 -18 -5 27 108
12 31 14 32 17 12 2 -12 -4 -29 -13 -38z m-1548 24 c-3 -8 -6 -5 -6 6 -1 11 2
17 5 13 3 -3 4 -12 1 -19z m1693 -70 c-18 -40 -41 -92 -51 -115 -11 -23 -19
-46 -19 -50 0 -15 -48 -125 -59 -136 -6 -6 -11 -21 -11 -33 0 -13 -4 -26 -10
-29 -5 -3 -10 -13 -10 -22 0 -8 -6 -29 -14 -46 -46 -109 -123 -310 -167 -437
-44 -128 -64 -166 -91 -174 -72 -19 -142 14 -184 87 -55 96 -69 212 -69 582 1
235 4 325 13 340 10 16 11 5 6 -62 l-7 -83 111 0 c107 0 111 -1 115 -22 2 -13
4 -5 5 17 1 22 6 58 11 80 l9 40 1 -38 c1 -41 21 -43 21 -2 0 13 4 26 9 29 5
3 6 -35 3 -87 -2 -50 -1 -89 3 -85 3 3 6 34 6 67 0 33 5 64 11 67 12 8 3 -266
-12 -346 -5 -25 -5 -50 -2 -57 12 -21 34 3 39 43 3 22 9 43 14 48 5 6 9 19 9
31 0 12 4 25 9 31 4 5 13 27 19 49 6 22 17 58 25 80 14 37 16 38 20 15 2 -14
3 -6 2 18 -2 33 1 42 14 42 14 0 51 46 51 64 0 17 -22 2 -31 -21 -7 -18 -13
-23 -16 -15 -3 8 0 19 6 25 6 6 11 20 11 31 0 15 3 17 11 9 6 -6 18 -9 27 -6
12 5 14 -1 8 -43 -6 -37 -5 -46 4 -38 7 7 12 33 12 58 1 25 5 46 10 46 4 0 8
18 8 40 l0 40 50 0 c39 0 50 3 50 16 0 13 3 14 14 5 12 -10 17 -8 26 9 6 12
14 19 17 17 2 -3 -10 -38 -27 -79z m-1533 2 c-7 -17 -13 -26 -15 -21 -3 10 15
51 22 51 3 0 -1 -14 -7 -30z m1165 1 c-5 -3 -12 -15 -16 -26 -6 -16 -9 -17
-16 -5 -6 9 -6 16 0 18 6 2 10 13 10 24 0 17 2 18 15 8 9 -7 12 -16 7 -19z
m-1192 -75 c0 -3 -4 -8 -10 -11 -5 -3 -10 -1 -10 4 0 6 5 11 10 11 6 0 10 -2
10 -4z m-23 -48 c-3 -8 -6 -5 -6 6 -1 11 2 17 5 13 3 -3 4 -12 1 -19z m-40
-80 c-3 -8 -6 -5 -6 6 -1 11 2 17 5 13 3 -3 4 -12 1 -19z m4863 -39 c0 -5 -4
-9 -10 -9 -5 0 -10 7 -10 16 0 8 5 12 10 9 6 -3 10 -10 10 -16z m-4882 -9
c-14 -22 -24 -19 -15 5 4 8 11 15 17 15 6 0 6 -7 -2 -20z m-41 -22 c-3 -8 -6
-5 -6 6 -1 11 2 17 5 13 3 -3 4 -12 1 -19z m4953 1 c0 -11 -4 -17 -10 -14 -5
3 -10 13 -10 21 0 8 5 14 10 14 6 0 10 -9 10 -21z m-5129 -16 c-12 -20 -14
-14 -5 12 4 9 9 14 11 11 3 -2 0 -13 -6 -23z m37 3 c-7 -8 -15 -12 -17 -11 -5
6 10 25 20 25 5 0 4 -6 -3 -14z m158 -28 c-8 -18 -19 -34 -24 -36 -6 -2 -3 13
6 32 20 45 36 48 18 4z m-126 -7 c0 -6 -4 -13 -10 -16 -5 -3 -10 1 -10 9 0 9
5 16 10 16 6 0 10 -4 10 -9z m4961 -14 c-10 -9 -11 -8 -5 6 3 10 9 15 12 12 3
-3 0 -11 -7 -18z m-5070 -24 c-12 -20 -14 -14 -5 12 4 9 9 14 11 11 3 -2 0
-13 -6 -23z m56 5 c-3 -8 -6 -5 -6 6 -1 11 2 17 5 13 3 -3 4 -12 1 -19z m140
-60 c-3 -8 -6 -5 -6 6 -1 11 2 17 5 13 3 -3 4 -12 1 -19z m-222 -45 c-20 -37
-12 -59 11 -29 8 11 14 14 14 7 0 -8 17 -11 56 -10 55 2 57 3 74 43 20 45 26
37 9 -12 -6 -17 -17 -33 -25 -36 -16 -6 -20 -46 -4 -46 19 0 10 -46 -26 -120
-20 -41 -45 -95 -57 -120 -25 -55 -34 -75 -46 -97 -5 -10 -23 -45 -38 -78
-104 -217 -238 -412 -339 -493 -37 -30 -140 -72 -132 -54 2 4 17 36 34 72 78
160 144 302 144 308 0 4 9 25 19 47 11 22 29 60 40 85 10 25 33 75 50 112 17
37 31 72 31 79 0 6 7 8 16 5 12 -4 14 -1 9 13 -3 11 -2 28 4 38 5 10 20 40 32
66 14 27 25 41 27 32 2 -8 8 -15 14 -15 5 0 7 12 3 28 -7 36 20 103 46 109 21
6 25 19 8 25 -7 2 -3 21 12 53 12 26 25 42 27 35 3 -7 -3 -28 -13 -47z m132
25 c-3 -8 -6 -5 -6 6 -1 11 2 17 5 13 3 -3 4 -12 1 -19z m55 -50 c-11 -24 -23
-50 -25 -58 -5 -12 -6 -12 -6 1 -1 22 39 112 46 105 4 -3 -3 -25 -15 -48z
m3825 -130 c-3 -8 -6 -5 -6 6 -1 11 2 17 5 13 3 -3 4 -12 1 -19z m50 0 c-3 -8
-6 -5 -6 6 -1 11 2 17 5 13 3 -3 4 -12 1 -19z m-437 -98 c0 -5 -2 -10 -4 -10
-3 0 -8 5 -11 10 -3 6 -1 10 4 10 6 0 11 -4 11 -10z m-300 -70 c-5 -22 -8 -27
-9 -13 -1 21 9 56 14 51 2 -2 0 -19 -5 -38z"/>
<path d="M4847 4173 c-4 -3 -7 -11 -7 -17 0 -6 5 -5 12 2 6 6 9 14 7 17 -3 3
-9 2 -12 -2z"/>
<path d="M962 3070 c-18 -29 -15 -38 4 -12 9 13 14 25 12 27 -2 2 -9 -5 -16
-15z"/>
<path d="M3520 3809 c0 -5 5 -7 10 -4 6 3 10 8 10 11 0 2 -4 4 -10 4 -5 0 -10
-5 -10 -11z"/>
<path d="M2741 3584 c0 -11 3 -14 6 -6 3 7 2 16 -1 19 -3 4 -6 -2 -5 -13z"/>
<path d="M4310 3420 c0 -11 5 -20 10 -20 6 0 10 9 10 20 0 11 -4 20 -10 20 -5
0 -10 -9 -10 -20z"/>
<path d="M4270 3320 c0 -5 5 -10 11 -10 5 0 7 5 4 10 -3 6 -8 10 -11 10 -2 0
-4 -4 -4 -10z"/>
<path d="M4261 3288 c0 -7 4 -22 9 -33 8 -18 9 -17 9 7 1 15 -3 30 -9 33 -5 3
-10 0 -9 -7z"/>
<path d="M4240 3227 c0 -15 5 -27 10 -27 6 0 8 -10 5 -23 -3 -12 0 -35 8 -49
13 -25 13 -24 12 26 -1 31 -9 63 -18 77 l-17 23 0 -27z"/>
<path d="M4222 3180 c0 -14 2 -19 5 -12 2 6 2 18 0 25 -3 6 -5 1 -5 -13z"/>
<path d="M4197 3143 c-13 -13 -7 -32 8 -27 8 4 15 12 15 20 0 15 -12 19 -23 7z"/>
<path d="M4171 3044 c0 -11 3 -14 6 -6 3 7 2 16 -1 19 -3 4 -6 -2 -5 -13z"/>
<path d="M3922 2320 c0 -14 2 -19 5 -12 2 6 2 18 0 25 -3 6 -5 1 -5 -13z"/>
<path d="M3961 2304 c0 -11 3 -14 6 -6 3 7 2 16 -1 19 -3 4 -6 -2 -5 -13z"/>
<path d="M3906 2275 c-3 -8 -1 -15 4 -15 6 0 10 7 10 15 0 8 -2 15 -4 15 -2 0
-6 -7 -10 -15z"/>
<path d="M3351 2919 c0 -13 4 -33 9 -44 7 -14 8 -8 3 20 -7 46 -13 59 -12 24z"/>
<path d="M3126 2911 c-4 -7 -5 -15 -2 -18 9 -9 19 4 14 18 -4 11 -6 11 -12 0z"/>
<path d="M3001 2034 c0 -11 3 -14 6 -6 3 7 2 16 -1 19 -3 4 -6 -2 -5 -13z"/>
<path d="M2417 2883 c-12 -12 -7 -22 8 -17 8 4 15 10 15 15 0 11 -14 12 -23 2z"/>
<path d="M2314 2774 c3 -9 6 -25 6 -37 0 -15 3 -18 11 -10 12 12 2 63 -13 63
-6 0 -7 -7 -4 -16z"/>
<path d="M2360 2769 c0 -11 5 -17 10 -14 6 3 10 13 10 21 0 8 -4 14 -10 14 -5
0 -10 -9 -10 -21z"/>
<path d="M2290 2690 c0 -5 5 -10 10 -10 6 0 10 5 10 10 0 6 -4 10 -10 10 -5 0
-10 -4 -10 -10z"/>
<path d="M2320 2676 c0 -9 5 -16 10 -16 6 0 10 4 10 9 0 6 -4 13 -10 16 -5 3
-10 -1 -10 -9z"/>
<path d="M2023 2630 c0 -30 2 -43 4 -27 2 15 2 39 0 55 -2 15 -4 2 -4 -28z"/>
<path d="M1776 2654 c-10 -26 -7 -174 4 -174 6 0 10 38 10 95 0 95 -2 109 -14
79z"/>
<path d="M2182 2580 c0 -14 2 -19 5 -12 2 6 2 18 0 25 -3 6 -5 1 -5 -13z"/>
<path d="M2230 2570 c0 -5 5 -10 10 -10 6 0 10 5 10 10 0 6 -4 10 -10 10 -5 0
-10 -4 -10 -10z"/>
<path d="M2257 2534 c-10 -14 -16 -30 -14 -37 3 -7 9 0 15 14 6 15 16 29 23
31 7 2 9 7 4 10 -6 3 -18 -5 -28 -18z"/>
<path d="M2200 2535 c0 -8 5 -15 10 -15 6 0 10 7 10 15 0 8 -4 15 -10 15 -5 0
-10 -7 -10 -15z"/>
<path d="M2036 2504 c-9 -25 -7 -64 4 -64 6 0 10 18 10 40 0 43 -4 50 -14 24z"/>
<path d="M2142 2470 c0 -14 2 -19 5 -12 2 6 2 18 0 25 -3 6 -5 1 -5 -13z"/>
<path d="M1763 2420 c0 -30 2 -43 4 -27 2 15 2 39 0 55 -2 15 -4 2 -4 -28z"/>
<path d="M2101 2104 c0 -11 3 -14 6 -6 3 7 2 16 -1 19 -3 4 -6 -2 -5 -13z"/>
<path d="M515 2328 c-4 -10 -4 -26 0 -35 8 -17 8 -17 12 0 3 9 3 25 0 35 -4
16 -4 16 -12 0z"/>
<path d="M467 2293 c-13 -12 -7 -33 8 -33 8 0 15 9 15 20 0 20 -11 26 -23 13z"/>
<path d="M544 2224 c6 -49 20 -74 40 -74 7 0 8 3 0 8 -18 12 -36 69 -29 91 4
13 2 21 -6 21 -8 0 -10 -13 -5 -46z"/>
<path d="M603 2255 c-7 -8 -13 -24 -12 -37 l0 -23 11 23 c6 12 15 22 20 22 4
0 8 7 8 15 0 19 -11 19 -27 0z"/>
<path d="M407 2182 c-5 -7 -2 -18 7 -27 9 -9 17 -11 21 -5 3 5 2 10 -4 10 -5
0 -11 8 -13 18 -3 12 -6 14 -11 4z"/>
<path d="M382 2118 c-20 -20 -13 -32 8 -13 19 18 20 17 20 -1 0 -11 -5 -25
-12 -32 -9 -9 -8 -12 4 -12 20 0 31 39 16 57 -13 16 -21 16 -36 1z"/>
<path d="M450 2008 c0 -19 2 -20 10 -8 13 19 13 30 0 30 -5 0 -10 -10 -10 -22z"/>
<path d="M491 1984 c0 -11 3 -14 6 -6 3 7 2 16 -1 19 -3 4 -6 -2 -5 -13z"/>
<path d="M297 1923 c-4 -3 -7 -13 -7 -22 1 -13 3 -13 11 2 11 19 8 33 -4 20z"/>
</g>
</svg>
